<?xml version="1.0" standalone="no"?>
<!DOCTYPE svg PUBLIC "-//W3C//DTD SVG 20010904//EN"
 "http://www.w3.org/TR/2001/REC-SVG-20010904/DTD/svg10.dtd">
<svg version="1.0" xmlns="http://www.w3.org/2000/svg"
 width="102.000000pt" height="102.000000pt" viewBox="0 0 102.000000 102.000000"
 preserveAspectRatio="xMidYMid meet">
<metadata>
Created by potrace 1.11, written by Peter Selinger 2001-2013
</metadata>
<g transform="translate(0.000000,102.000000) scale(0.100000,-0.100000)"
fill="#000000" stroke="none">
<path d="M317 792 c-185 -186 -196 -198 -180 -214 16 -16 16 -19 0 -36 -16
-18 -16 -20 3 -37 19 -17 19 -19 3 -37 -16 -18 -9 -27 180 -216 l197 -197 197
197 c186 186 196 198 178 212 -17 13 -18 17 -6 40 12 21 12 28 1 41 -11 13
-10 18 3 33 15 17 4 30 -181 215 l-197 197 -198 -198z m561 -210 c-9 -11 -46
21 -187 162 l-176 176 -175 -175 c-139 -139 -177 -172 -188 -163 -11 9 24 49
175 200 l188 188 187 -187 c149 -149 185 -190 176 -201z m-37 -36 c-11 -13
-35 7 -167 141 l-155 157 -158 -158 c-140 -140 -159 -155 -171 -141 -12 14 6
36 156 186 l169 169 169 -169 c144 -144 168 -172 157 -185z m-173 129 c78 -79
142 -148 142 -152 0 -5 -66 -75 -148 -156 l-147 -147 -150 150 -150 150 150
150 c82 83 152 150 155 150 3 0 70 -65 148 -145z m-486 -167 c-17 -17 -47 9
-30 29 10 12 13 12 27 -1 11 -12 12 -19 3 -28z m694 3 c-22 -21 -46 0 -26 24
10 12 16 13 27 3 12 -10 12 -13 -1 -27z m-206 -156 c121 120 158 152 170 145
12 -8 -19 -44 -155 -180 l-170 -170 -167 167 c-133 133 -165 170 -156 181 9
11 42 -17 167 -142 l156 -156 155 155z m-325 -55 l170 -170 171 171 c123 122
177 170 188 166 9 -4 16 -10 16 -14 0 -5 -83 -91 -185 -193 l-185 -185 -186
186 c-164 164 -200 209 -166 209 4 0 84 -77 177 -170z"/>
<path d="M388 543 c-3 -60 -5 -68 -23 -68 -13 0 -20 -7 -20 -20 0 -15 8 -21
30 -23 50 -4 59 9 65 95 l5 78 24 -88 c23 -83 26 -88 49 -85 20 2 28 11 36 43
12 43 19 40 31 -13 6 -28 11 -33 32 -30 23 3 29 12 49 83 29 99 29 95 0 95
-21 0 -26 -7 -38 -57 l-14 -57 -14 57 c-11 49 -17 57 -34 55 -15 -2 -23 -14
-29 -45 -4 -24 -12 -43 -16 -43 -5 0 -12 19 -17 43 l-9 42 -52 3 -52 3 -3 -68z"/>
</g>
</svg>
